# xmcd
# 
# Track frame offsets:
#     150
#     26652
#     164562
# 
# Disc length: 3467
# 
# Revision: 1
# Processed by: cddbd v1.5.2PL0 Copyright (c) Steve Scherf et al.
# Submitted via: BonkEnc v1.0.8
# 
DISCID=1f0d8903
DTITLE=Miles Davis - [1973.11.10] Berlin And Beyond - Palazzo dello Sport, Bologna, Italy
DYEAR=1973
DGENRE=Contemporary Jazz
TTITLE0=Funky Tonk - Sanctuary
TTITLE1=Turnaroundphrase - Tune In 5 - Ife
TTITLE2=Ife - Calypso Frelimo
EXTD=YEAR: 1973
EXTT0=
EXTT1=
EXTT2=
PLAYORDER=
